<mxfile host="app.diagrams.net" modified="2024-01-11T17:00:38.999Z" agent="Mozilla/5.0 (Windows NT 10.0; Win64; x64) AppleWebKit/537.36 (KHTML, like Gecko) Chrome/119.0.0.0 Safari/537.36 OPR/105.0.0.0" version="22.1.18" etag="zGpxF3fp42tb5pdIM5kb" type="github">
  <diagram name="Страница — 1" id="d9BvL7pK46jfuOrEVnU3">
    <mxGraphModel>
      <root>
        <mxCell id="0" />
        <mxCell id="1" parent="0" />
      </root>
    </mxGraphModel>
  </diagram>
</mxfile>
